HIERARCHY
ROOT Hips
{
  OFFSET 5.84602e-005 68.8428 3.50346
  CHANNELS 6 Xposition Yposition Zposition Zrotation Xrotation Yrotation
  JOINT Spine
  {
    OFFSET 0 8.597 -4.6522
    CHANNELS 3 Zrotation Xrotation Yrotation
    JOINT Spine1
    {
      OFFSET 0 7.8454 0.4098
      CHANNELS 3 Zrotation Xrotation Yrotation
      JOINT Spine2
      {
        OFFSET 0 9.7078 -2.1609
        CHANNELS 3 Zrotation Xrotation Yrotation
        JOINT Neck
        {
          OFFSET 0 21.8761 -0.4549
          CHANNELS 3 Zrotation Xrotation Yrotation
          JOINT Head
          {
            OFFSET 0 12.3537 3.3602
            CHANNELS 3 Zrotation Xrotation Yrotation
            End Site
            {
              OFFSET 0.0001 18.9506 0.5657
            }
          }
        }
        JOINT LeftShoulder
        {
          OFFSET 2.2086 21.1115 7.2329
          CHANNELS 3 Zrotation Xrotation Yrotation
          JOINT LeftArm
          {
            OFFSET 13.1193 3.0282 -4.8998
            CHANNELS 3 Zrotation Xrotation Yrotation
            JOINT LeftForeArm
            {
              OFFSET 27.4081 -0.0973053 -0.2375
              CHANNELS 3 Zrotation Xrotation Yrotation
              JOINT LeftHand
              {
                OFFSET 22.8641 0.0662994 -0.1369
                CHANNELS 3 Zrotation Xrotation Yrotation
                JOINT LeftHandIndex1
                {
                  OFFSET 8.8614 0.775009 2.4612
                  CHANNELS 3 Zrotation Xrotation Yrotation
                  JOINT LeftHandIndex2
                  {
                    OFFSET 3.3146 -0.808304 0.5841
                    CHANNELS 3 Zrotation Xrotation Yrotation
                    JOINT LeftHandIndex3
                    {
                      OFFSET 2.2628 -0.552002 0.3989
                      CHANNELS 3 Zrotation Xrotation Yrotation
                      End Site
                      {
                        OFFSET 1.6102 -0.4807 0.2612
                      }
                    }
                  }
                }
                JOINT LeftHandMiddle1
                {
                  OFFSET 8.9937 0.895004 0.2143
                  CHANNELS 3 Zrotation Xrotation Yrotation
                  JOINT LeftHandMiddle2
                  {
                    OFFSET 4.0984 0.0113983 -0.0242
                    CHANNELS 3 Zrotation Xrotation Yrotation
                    JOINT LeftHandMiddle3
                    {
                      OFFSET 2.2716 0.00689697 -0.0138001
                      CHANNELS 3 Zrotation Xrotation Yrotation
                      End Site
                      {
                        OFFSET 2.0404 -0.1441 0.0027
                      }
                    }
                  }
                }
                JOINT LeftHandRing1
                {
                  OFFSET 8.5234 0.597198 -2.0164
                  CHANNELS 3 Zrotation Xrotation Yrotation
                  JOINT LeftHandRing2
                  {
                    OFFSET 3.7188 -0.188293 -0.2328
                    CHANNELS 3 Zrotation Xrotation Yrotation
                    JOINT LeftHandRing3
                    {
                      OFFSET 2.1191 -0.106598 -0.1332
                      CHANNELS 3 Zrotation Xrotation Yrotation
                      End Site
                      {
                        OFFSET 1.8737 -0.2304 -0.0886
                      }
                    }
                  }
                }
                JOINT LeftHandPinky1
                {
                  OFFSET 7.9094 -0.601089 -3.4825
                  CHANNELS 3 Zrotation Xrotation Yrotation
                  JOINT LeftHandPinky2
                  {
                    OFFSET 2.2874 -0.477005 -0.6314
                    CHANNELS 3 Zrotation Xrotation Yrotation
                    JOINT LeftHandPinky3
                    {
                      OFFSET 1.6774 -0.349396 -0.4633
                      CHANNELS 3 Zrotation Xrotation Yrotation
                      End Site
                      {
                        OFFSET 1.4888 -0.4091 -0.3416
                      }
                    }
                  }
                }
                JOINT LeftHandThumb1
                {
                  OFFSET 1.833 -1.3875 1.3896
                  CHANNELS 3 Zrotation Xrotation Yrotation
                  JOINT LeftHandThumb2
                  {
                    OFFSET 3.4129 -1.121 2.5732
                    CHANNELS 3 Zrotation Xrotation Yrotation
                    JOINT LeftHandThumb3
                    {
                      OFFSET 2.2474 -0.804199 1.6192
                      CHANNELS 3 Zrotation Xrotation Yrotation
                      End Site
                      {
                        OFFSET 1.6527 -0.5689 1.1317
                      }
                    }
                  }
                }
              }
            }
          }
        }
        JOINT RightShoulder
        {
          OFFSET -2.2086 21.1115 7.2329
          CHANNELS 3 Zrotation Xrotation Yrotation
          JOINT RightArm
          {
            OFFSET -13.1216 3.0287 -4.9007
            CHANNELS 3 Zrotation Xrotation Yrotation
            JOINT RightForeArm
            {
              OFFSET -27.4081 -0.0973053 -0.2375
              CHANNELS 3 Zrotation Xrotation Yrotation
              JOINT RightHand
              {
                OFFSET -22.8641 0.0664063 -0.1369
                CHANNELS 3 Zrotation Xrotation Yrotation
                JOINT RightHandIndex1
                {
                  OFFSET -8.8614 0.774994 2.4612
                  CHANNELS 3 Zrotation Xrotation Yrotation
                  JOINT RightHandIndex2
                  {
                    OFFSET -3.3146 -0.808304 0.5841
                    CHANNELS 3 Zrotation Xrotation Yrotation
                    JOINT RightHandIndex3
                    {
                      OFFSET -2.2628 -0.552002 0.3989
                      CHANNELS 3 Zrotation Xrotation Yrotation
                      End Site
                      {
                        OFFSET -1.6102 -0.4807 0.2612
                      }
                    }
                  }
                }
                JOINT RightHandMiddle1
                {
                  OFFSET -8.9937 0.894989 0.2143
                  CHANNELS 3 Zrotation Xrotation Yrotation
                  JOINT RightHandMiddle2
                  {
                    OFFSET -4.0984 0.0113983 -0.0242
                    CHANNELS 3 Zrotation Xrotation Yrotation
                    JOINT RightHandMiddle3
                    {
                      OFFSET -2.2716 0.00691223 -0.0138001
                      CHANNELS 3 Zrotation Xrotation Yrotation
                      End Site
                      {
                        OFFSET -2.0404 -0.1441 0.0027
                      }
                    }
                  }
                }
                JOINT RightHandRing1
                {
                  OFFSET -8.5234 0.597198 -2.0164
                  CHANNELS 3 Zrotation Xrotation Yrotation
                  JOINT RightHandRing2
                  {
                    OFFSET -3.7188 -0.188309 -0.2328
                    CHANNELS 3 Zrotation Xrotation Yrotation
                    JOINT RightHandRing3
                    {
                      OFFSET -2.1191 -0.106598 -0.1332
                      CHANNELS 3 Zrotation Xrotation Yrotation
                      End Site
                      {
                        OFFSET -1.8737 -0.2304 -0.0886
                      }
                    }
                  }
                }
                JOINT RightHandPinky1
                {
                  OFFSET -7.9094 -0.601105 -3.4825
                  CHANNELS 3 Zrotation Xrotation Yrotation
                  JOINT RightHandPinky2
                  {
                    OFFSET -2.2874 -0.477005 -0.6314
                    CHANNELS 3 Zrotation Xrotation Yrotation
                    JOINT RightHandPinky3
                    {
                      OFFSET -1.6774 -0.349396 -0.4633
                      CHANNELS 3 Zrotation Xrotation Yrotation
                      End Site
                      {
                        OFFSET -1.4888 -0.4091 -0.3416
                      }
                    }
                  }
                }
                JOINT RightHandThumb1
                {
                  OFFSET -1.833 -1.38751 1.3896
                  CHANNELS 3 Zrotation Xrotation Yrotation
                  JOINT RightHandThumb2
                  {
                    OFFSET -3.41299 -1.12099 2.5732
                    CHANNELS 3 Zrotation Xrotation Yrotation
                    JOINT RightHandThumb3
                    {
                      OFFSET -2.24741 -0.804108 1.6192
                      CHANNELS 3 Zrotation Xrotation Yrotation
                      End Site
                      {
                        OFFSET -1.6527 -0.5689 1.1317
                      }
                    }
                  }
                }
              }
            }
          }
        }
      }
    }
  }
  JOINT RightUpLeg
  {
    OFFSET -9.1966 3.8861 -0.7581
    CHANNELS 3 Zrotation Xrotation Yrotation
    JOINT RightLeg
    {
      OFFSET -0.7359 -41.0265 0
      CHANNELS 3 Zrotation Xrotation Yrotation
      JOINT RightFoot
      {
        OFFSET 0 -40.2855 0
        CHANNELS 3 Zrotation Xrotation Yrotation
        JOINT RightToeBase
        {
          OFFSET 0 -5.6122 11.7359
          CHANNELS 3 Zrotation Xrotation Yrotation
          End Site
          {
            OFFSET 0 0 7.8731
          }
        }
      }
    }
  }
  JOINT LeftUpLeg
  {
    OFFSET 9.1965 3.8864 -0.7581
    CHANNELS 3 Zrotation Xrotation Yrotation
    JOINT LeftLeg
    {
      OFFSET 0.7359 -41.0268 0
      CHANNELS 3 Zrotation Xrotation Yrotation
      JOINT LeftFoot
      {
        OFFSET 0 -40.2855 0
        CHANNELS 3 Zrotation Xrotation Yrotation
        JOINT LeftToeBase
        {
          OFFSET 0 -5.6122 11.7359
          CHANNELS 3 Zrotation Xrotation Yrotation
          End Site
          {
            OFFSET 0 0 7.8731
          }
        }
      }
    }
  }
}
MOTION
Frames:	6
Frame Time:	0.0333333
39.7246 19.2586 3.6658 -180 -85.9956 -180 -1.84889 0.764474 -0.0677115 -3.69737 1.53073 -0.110727 -3.69737 1.5307 -0.11073 -18.7894 -3.01307 0.00428966 -1.21526 -7.93744 1.04308 -0.108726 1.96314 -0.148959 -18.098 47.6503 48.5105 24.1343 34.2874 -38.1595 1.42327 -6.10588 3.73963 2.18663e-015 3.97569e-016 -1.59028e-015 1.25276e-009 1.37008e-007 8.66062e-007 -1.98785e-015 5.96354e-016 -3.18055e-015 2.18663e-015 3.97569e-016 -1.59028e-015 -0.0145918 -8.86194e-005 2.23926e-006 -2.78299e-015 -1.98785e-016 -1.59028e-015 2.18663e-015 3.97569e-016 -1.59028e-015 -0.0187652 -0.00117629 5.99383e-005 -3.50932e-007 -9.45174e-008 -2.80206e-007 2.18663e-015 3.97569e-016 -1.59028e-015 -0.012224 -0.00323647 0.000674056 8.44835e-016 -3.97569e-016 -0 2.18663e-015 3.97569e-016 -1.59028e-015 1.25276e-009 1.37008e-007 8.66062e-007 -1.98785e-015 5.96354e-016 -3.18055e-015 -4.84857 2.41853 -14.4219 0.940237 53.2144 -3.57509 -3.16809 40.8617 4.49771 -4.52633 -4.4899 20.1521 2.98177e-016 -2.98177e-016 3.18055e-015 1.92573e-015 0 1.59028e-015 1.9133e-015 -9.93923e-017 1.59028e-015 2.98177e-016 -2.98177e-016 3.18055e-015 0.0149897 -9.0987e-005 4.37659e-007 -1.54058e-015 9.93923e-017 7.95139e-016 2.98177e-016 -2.98177e-016 3.18055e-015 0.018997 -0.00119111 -6.02104e-005 -8.44835e-016 7.95139e-016 -0 2.98177e-016 -2.98177e-016 3.18055e-015 0.0122586 -0.00324548 -0.00067533 1.86361e-015 4.96962e-016 1.59028e-015 2.98177e-016 -2.98177e-016 3.18055e-015 1.92573e-015 0 1.59028e-015 1.9133e-015 -9.93923e-017 1.59028e-015 -59.761 -16.3941 -33.1072 -130.841 72.9614 137.6 -3.80173 -0.00595397 -2.73105 -1.52326e-006 -7.07519e-007 2.53784e-007 59.3913 -16.6714 31.471 127.109 74.005 -134.068 2.05716 1.41 2.89754 -7.61404e-007 3.53923e-007 1.27198e-007 
39.7245 19.3207 3.66658 -180 -85.9956 -180 -1.84881 0.784663 -0.0658848 -3.69723 1.57104 -0.106429 -3.69723 1.57102 -0.106429 -18.7981 -3.46377 -0.149386 -1.21417 -7.5369 1.05169 0.247321 2.00818 0.256205 -17.8615 47.7959 47.9631 24.5835 34.01 -38.8365 1.03489 -6.237 3.9513 8.47353e-007 7.04811e-008 -1.88352e-008 -2.66352e-007 2.92039e-007 6.01391e-007 8.47353e-007 7.04811e-008 -1.88352e-008 8.47353e-007 7.04811e-008 -1.88352e-008 -0.0146279 -8.9218e-005 6.8238e-007 8.47344e-007 7.04834e-008 -1.88268e-008 8.47353e-007 7.04811e-008 -1.88352e-008 -0.0187501 -0.00117537 6.02653e-005 8.47341e-007 7.0483e-008 -1.88323e-008 8.47353e-007 7.04811e-008 -1.88352e-008 -0.0123121 -0.00325957 0.000679586 8.47345e-007 7.0476e-008 -1.88513e-008 8.47353e-007 7.04811e-008 -1.88352e-008 -2.66352e-007 2.92039e-007 6.01391e-007 8.47353e-007 7.04811e-008 -1.88352e-008 -4.84853 2.41851 -14.4219 0.940234 53.2144 -3.57508 -3.1681 40.8617 4.49772 -4.43925 -4.59408 20.2275 -4.21852e-007 -3.17073e-008 -2.01633e-008 -1.275e-006 1.33987e-007 4.01792e-008 -4.21852e-007 -3.17073e-008 -2.01633e-008 -4.21852e-007 -3.17073e-008 -2.01633e-008 0.014999 -9.09395e-005 -2.5873e-007 2.83268e-015 0 1.59028e-015 -4.21852e-007 -3.17073e-008 -2.01633e-008 0.0189959 -0.00119085 -5.96484e-005 5.96354e-016 1.98785e-016 -7.95139e-016 -4.21852e-007 -3.17073e-008 -2.01633e-008 0.0122616 -0.00324602 -0.000675633 1.71452e-015 -7.95139e-016 7.95139e-016 -4.21852e-007 -3.17073e-008 -2.01633e-008 -1.275e-006 1.33987e-007 4.01792e-008 -4.21852e-007 -3.17073e-008 -2.01633e-008 -59.9776 -16.2347 -33.3527 -130.837 72.9624 137.598 -4.02624 -0.0154132 -2.53503 2.41129e-006 -1.32622e-006 4.32834e-007 59.5147 -16.5483 31.6068 127.105 74.0058 -134.065 2.1862 1.39432 2.77454 -1.58026e-006 1.5691e-006 -5.45856e-006 
39.7245 19.3827 3.66737 -180 -85.9956 -180 -1.84872 0.804842 -0.0640623 -3.69706 1.61134 -0.102127 -3.69706 1.61132 -0.102129 -18.808 -3.91441 -0.303198 -1.21313 -7.13635 1.0603 0.602962 2.05576 0.661052 -17.6222 47.94 47.4133 25.0271 33.7283 -39.5087 0.646949 -6.36953 4.16212 1.44119e-015 7.95139e-016 1.59028e-015 -9.93923e-017 1.19271e-015 -0 1.59028e-015 1.98785e-016 3.18055e-015 1.44119e-015 7.95139e-016 1.59028e-015 -0.0146103 -8.8636e-005 -9.82085e-007 -1.54058e-015 1.98785e-016 3.18055e-015 1.44119e-015 7.95139e-016 1.59028e-015 -0.0187645 -0.00117668 5.93954e-005 8.94531e-016 5.96354e-016 -1.59028e-015 1.44119e-015 7.95139e-016 1.59028e-015 -0.0122885 -0.00325329 0.000677216 -1.54058e-015 0 -1.59028e-015 1.44119e-015 7.95139e-016 1.59028e-015 -9.93923e-017 1.19271e-015 -0 1.59028e-015 1.98785e-016 3.18055e-015 -4.84854 2.41851 -14.4219 0.940248 53.2144 -3.5751 -3.1681 40.8617 4.49772 -4.35201 -4.69815 20.3031 -9.56651e-016 -9.93923e-016 7.95139e-016 6.83322e-016 -2.98177e-016 1.59028e-015 2.28602e-015 -3.97569e-016 7.95139e-016 -9.56651e-016 -9.93923e-016 7.95139e-016 0.0149923 -9.10574e-005 1.06007e-006 -6.21202e-016 1.39149e-015 7.95139e-016 -9.56651e-016 -9.93923e-016 7.95139e-016 0.0189997 -0.00119124 -5.999e-005 -1.36664e-016 1.98785e-016 -1.59028e-015 -9.56651e-016 -9.93923e-016 7.95139e-016 0.0122581 -0.00324483 -0.000675175 2.08724e-015 9.93923e-017 -7.95139e-016 -9.56651e-016 -9.93923e-016 7.95139e-016 6.83322e-016 -2.98177e-016 1.59028e-015 2.28602e-015 -3.97569e-016 7.95139e-016 -60.1932 -16.0744 -33.5972 -130.833 72.9634 137.595 -4.25072 -0.0255778 -2.33906 -1.72572e-006 1.16633e-006 3.12397e-006 59.6378 -16.425 31.7423 127.1 74.0066 -134.062 2.3152 1.3784 2.65157 1.59028e-015 4.77083e-015 -0 
39.7245 19.4447 3.66815 -180 -85.9956 -180 -1.84862 0.825006 -0.0622365 -3.6969 1.6516 -0.0978276 -3.6969 1.65163 -0.0978239 -18.819 -4.36506 -0.457146 -1.21215 -6.73585 1.06889 0.958245 2.1058 1.06555 -17.3803 48.0825 46.8611 25.4652 33.4424 -40.1759 0.259423 -6.50347 4.37207 3.48994e-007 9.17904e-008 2.81445e-007 8.29712e-007 2.82387e-007 9.01687e-013 4.99427e-007 1.15758e-007 5.65906e-007 3.48994e-007 9.17904e-008 2.81445e-007 -0.0146081 -8.85902e-005 -8.57246e-007 -2.98177e-016 1.98785e-016 -3.18055e-015 3.48994e-007 9.17904e-008 2.81445e-007 -0.0187473 -0.00117545 5.93814e-005 2.98177e-016 -1.98785e-016 1.59028e-015 3.48994e-007 9.17904e-008 2.81445e-007 -0.0122751 -0.00324962 0.000677751 4.96962e-016 -7.95139e-016 1.59028e-015 3.48994e-007 9.17904e-008 2.81445e-007 8.29712e-007 2.82387e-007 9.01687e-013 4.99427e-007 1.15758e-007 5.65906e-007 -4.84853 2.41849 -14.4219 0.94024 53.2145 -3.57509 -3.16809 40.8617 4.49771 -4.26463 -4.8021 20.3789 2.26118e-015 -2.98177e-016 -0 6.58474e-016 -1.98785e-016 -0 5.96354e-016 -3.97569e-016 -0 2.26118e-015 -2.98177e-016 -0 0.0150006 -9.1194e-005 8.04684e-007 3.99627e-007 -6.76919e-008 1.78949e-008 2.26118e-015 -2.98177e-016 -0 0.0189949 -0.00119104 -5.98203e-005 -8.19987e-016 -2.98177e-016 2.38542e-015 2.26118e-015 -2.98177e-016 -0 0.0122751 -0.00324919 -0.000676679 3.72721e-016 -1.98785e-016 -2.38542e-015 2.26118e-015 -2.98177e-016 -0 6.58474e-016 -1.98785e-016 -0 5.96354e-016 -3.97569e-016 -0 -60.4079 -15.9133 -33.8409 -130.829 72.9644 137.592 -4.47515 -0.0365279 -2.14317 7.61684e-007 3.53793e-007 -1.25997e-007 59.7604 -16.3015 31.8774 127.096 74.0074 -134.059 2.44417 1.36217 2.52865 -2.55181e-007 -5.13467e-007 1.63662e-007 
39.7244 19.5068 3.66894 -180 -85.9956 -180 -1.84851 0.84517 -0.0604067 -3.69673 1.69186 -0.0935237 -3.69673 1.69181 -0.0935275 -18.8314 -4.81551 -0.611259 -1.21124 -6.33539 1.07746 1.31307 2.15841 1.46968 -17.1356 48.2234 46.3065 25.8978 33.1523 -40.8381 -0.127646 -6.63878 4.58112 4.96962e-016 -1.98785e-016 4.77083e-015 3.67752e-015 -5.96354e-016 4.77083e-015 4.47266e-016 -1.98785e-016 3.18055e-015 4.96962e-016 -1.98785e-016 4.77083e-015 -0.0146399 -8.92225e-005 7.14375e-007 5.06901e-015 0 -1.59028e-015 4.96962e-016 -1.98785e-016 4.77083e-015 -0.0187677 -0.00117698 5.77903e-005 2.98177e-016 7.95139e-016 -1.59028e-015 4.96962e-016 -1.98785e-016 4.77083e-015 -0.0123118 -0.00325878 0.000678333 -1.44119e-015 -3.97569e-016 -1.59028e-015 4.96962e-016 -1.98785e-016 4.77083e-015 3.67752e-015 -5.96354e-016 4.77083e-015 4.47266e-016 -1.98785e-016 3.18055e-015 -4.84856 2.41851 -14.4219 0.940241 53.2144 -3.57509 -3.1681 40.8617 4.49772 -4.17709 -4.90593 20.4549 -8.54755e-007 -5.38155e-008 2.08341e-008 -4.66873e-007 -2.24212e-007 4.2755e-008 -4.07461e-007 -1.47689e-007 8.54017e-009 -8.54755e-007 -5.38155e-008 2.08341e-008 0.0149995 -9.11118e-005 1.14784e-006 -8.54744e-007 -5.38129e-008 2.08418e-008 -8.54755e-007 -5.38155e-008 2.08341e-008 0.0189874 -0.00119085 -5.95798e-005 -8.54741e-007 -5.38134e-008 2.08518e-008 -8.54755e-007 -5.38155e-008 2.08341e-008 0.0122661 -0.00324769 -0.000674852 -8.54745e-007 -5.38206e-008 2.08636e-008 -8.54755e-007 -5.38155e-008 2.08341e-008 -4.66873e-007 -2.24212e-007 4.2755e-008 -4.07461e-007 -1.47689e-007 8.54017e-009 -60.6218 -15.7512 -34.0838 -130.825 72.9654 137.59 -4.6995 -0.0482498 -1.94738 8.15802e-007 2.23101e-006 -4.27621e-007 59.8828 -16.1777 32.0122 127.092 74.0082 -134.056 2.57309 1.34568 2.4058 0 1.11319e-014 -0 
39.7244 19.5688 3.66971 -180 -85.9956 -180 -1.84842 0.865305 -0.0585814 -3.69657 1.73207 -0.0892212 -3.69657 1.73204 -0.0892219 -18.8451 -5.26614 -0.765524 -1.21039 -5.93497 1.08602 1.66749 2.21343 1.87338 -16.8883 48.3628 45.7495 26.3248 32.8582 -41.4953 -0.514272 -6.77548 4.78927 -1.68967e-015 5.96354e-016 1.59028e-015 8.47342e-007 7.06592e-008 -1.85025e-008 4.37326e-015 1.98785e-016 1.59028e-015 -1.68967e-015 5.96354e-016 1.59028e-015 -0.014595 -8.85157e-005 -1.60895e-007 7.45443e-016 7.95139e-016 -0 -1.68967e-015 5.96354e-016 1.59028e-015 -0.0187229 -0.00117393 6.08157e-005 -3.18055e-015 1.98785e-016 -1.59028e-015 -1.68967e-015 5.96354e-016 1.59028e-015 -0.0122792 -0.00325062 0.000676369 2.78299e-015 9.93923e-016 -1.59028e-015 -1.68967e-015 5.96354e-016 1.59028e-015 8.47342e-007 7.06592e-008 -1.85025e-008 4.37326e-015 1.98785e-016 1.59028e-015 -4.84854 2.41849 -14.4219 0.940245 53.2144 -3.57509 -3.1681 40.8617 4.49772 -4.08941 -5.00965 20.531 -2.49723e-015 2.98177e-016 7.95139e-016 -2.43511e-015 1.09332e-015 7.95139e-016 -2.42269e-015 4.96962e-016 -0 -2.49723e-015 2.98177e-016 7.95139e-016 0.0149861 -9.10745e-005 4.08415e-007 1.63997e-015 4.96962e-016 -7.95139e-016 -2.49723e-015 2.98177e-016 7.95139e-016 0.0190045 -0.00119156 -6.01865e-005 3.72721e-017 -9.93923e-017 -7.95139e-016 -2.49723e-015 2.98177e-016 7.95139e-016 0.0122731 -0.0032489 -0.000675641 -1.21756e-015 4.96962e-016 7.95139e-016 -2.49723e-015 2.98177e-016 7.95139e-016 -2.43511e-015 1.09332e-015 7.95139e-016 -2.42269e-015 4.96962e-016 -0 -60.8346 -15.5884 -34.3258 -130.821 72.9664 137.587 -4.92379 -0.0607135 -1.75164 2.33927e-006 2.93867e-006 -6.78304e-007 60.0046 -16.0536 32.1465 127.088 74.0091 -134.053 2.70194 1.32894 2.28297 -1.59028e-015 -1.59028e-015 3.18055e-015 
